<?xml version="1.0" standalone="no"?>
<!DOCTYPE svg PUBLIC "-//W3C//DTD SVG 20010904//EN"
 "http://www.w3.org/TR/2001/REC-SVG-20010904/DTD/svg10.dtd">
<svg version="1.0" xmlns="http://www.w3.org/2000/svg"
 width="321.000000pt" height="321.000000pt" viewBox="0 0 321.000000 321.000000"
 preserveAspectRatio="xMidYMid meet">
<metadata>
Created by potrace 1.14, written by Peter Selinger 2001-2017
</metadata>
<g transform="translate(0.000000,321.000000) scale(0.100000,-0.100000)"
fill="#000000" stroke="none">
<path d="M2689 2184 c-11 -13 -9 -23 15 -65 16 -30 28 -67 29 -92 2 -50 -21
-185 -33 -192 -4 -3 -8 36 -9 86 -2 104 -20 152 -74 193 -38 29 -69 33 -86 12
-16 -19 -4 -42 34 -66 19 -12 44 -37 56 -56 20 -32 72 -214 64 -222 -2 -2 -22
34 -43 80 -53 109 -98 151 -175 163 -33 6 -67 -12 -67 -35 0 -17 32 -40 57
-40 40 0 92 -30 126 -72 18 -22 49 -60 70 -84 20 -25 37 -47 37 -50 0 -6 -118
85 -125 96 -10 16 -68 39 -105 42 -63 4 -109 -10 -116 -37 -9 -36 3 -48 45
-41 62 10 123 6 160 -12 80 -39 143 -74 139 -77 -2 -3 -36 4 -74 16 -100 29
-138 32 -181 14 -43 -18 -92 -61 -89 -78 6 -40 44 -49 74 -17 38 41 87 52 201
46 97 -6 146 -15 90 -17 -13 0 -35 -2 -49 -5 -143 -25 -197 -52 -225 -115 -22
-49 -17 -73 17 -77 23 -3 30 2 41 30 24 57 66 89 169 127 70 27 95 40 89 49
-4 7 -17 14 -29 15 -12 0 -19 3 -17 5 2 2 0 15 -5 28 -14 35 6 80 43 98 18 8
28 16 23 16 -5 0 27 38 72 84 45 46 82 87 82 92 1 5 3 26 6 47 9 57 -3 105
-27 112 -35 12 -49 -12 -45 -74 2 -30 0 -67 -6 -80 -9 -24 -118 -201 -123
-201 -2 0 12 41 31 91 39 106 44 131 32 183 -17 78 -67 118 -99 80z"/>
<path d="M3000 2073 c-26 -81 -84 -138 -202 -199 -33 -17 -29 -34 8 -34 17 0
23 -4 18 -12 -5 -8 -2 -9 12 -4 21 9 132 8 146 0 5 -3 32 0 60 6 65 16 128 70
128 110 0 50 -42 50 -79 0 -36 -50 -81 -66 -241 -84 l-45 -5 40 19 c22 10 47
19 55 19 31 3 115 57 137 90 43 64 39 131 -7 131 -12 0 -22 -12 -30 -37z"/>
<path d="M177 2089 c-21 -3 -57 -19 -80 -35 -40 -29 -85 -89 -74 -101 8 -7
623 -7 661 0 60 12 111 71 104 120 l-3 22 -285 0 c-157 1 -302 -2 -323 -6z"/>
<path d="M1141 2090 c-43 -5 -45 -7 -64 -55 -21 -56 -25 -65 -61 -150 -32 -76
-34 -89 -16 -90 16 0 140 32 147 38 2 2 16 28 31 58 27 54 27 54 75 55 46 0
47 -1 57 -37 8 -28 15 -37 28 -35 9 2 41 7 69 11 29 4 55 10 58 15 3 4 -13 49
-34 100 l-38 91 -104 2 c-57 1 -124 0 -148 -3z"/>
<path d="M1858 2088 c-51 -10 -104 -45 -128 -82 -39 -64 -47 -62 243 -61 144
1 272 5 283 8 19 7 21 15 20 67 -1 32 -5 62 -9 67 -10 10 -361 11 -409 1z"/>
<path d="M2843 1778 c0 -24 -3 -56 -5 -73 -29 -187 -31 -216 -18 -256 16 -47
63 -99 90 -99 10 0 24 9 30 20 9 18 5 28 -29 66 -44 50 -49 68 -55 219 -4 95
-3 93 34 -40 13 -44 31 -92 42 -107 28 -40 82 -70 120 -66 28 2 33 7 33 28 0
20 -10 30 -54 52 -29 15 -59 35 -67 45 -21 26 -103 193 -96 193 4 0 29 -30 57
-67 61 -81 106 -112 173 -120 58 -7 82 6 82 42 0 26 -16 35 -56 30 -65 -8
-109 16 -234 125 -41 35 -25 31 78 -22 82 -43 138 -49 197 -21 52 25 62 83 14
83 -11 0 -33 -7 -48 -15 -49 -25 -82 -25 -182 0 -54 14 -99 25 -101 25 -2 0
-4 -19 -5 -42z"/>
<path d="M47 1802 c-21 -4 -22 -43 -2 -81 27 -54 68 -61 334 -61 215 0 246 2
307 21 38 12 71 23 73 25 3 2 -9 18 -25 35 -55 58 -71 61 -385 62 -157 1 -293
1 -302 -1z"/>
<path d="M1706 1791 c-2 -3 -3 -67 -2 -141 3 -149 13 -183 69 -232 45 -39 83
-45 303 -44 l199 1 0 70 0 70 -196 1 c-168 0 -200 2 -223 17 -28 19 -28 17
-29 168 l0 95 -59 1 c-32 1 -60 -2 -62 -6z"/>
<path d="M1460 1753 c-36 -7 -68 -14 -72 -16 -4 -1 9 -40 28 -87 40 -94 49
-115 88 -210 l27 -65 72 1 c69 1 72 2 69 23 -1 13 -8 37 -16 55 -8 17 -40 94
-71 171 -32 77 -58 140 -59 141 0 0 -30 -5 -66 -13z"/>
<path d="M2765 1620 c-74 -119 -79 -131 -78 -180 2 -84 39 -135 79 -106 18 13
18 16 2 65 -21 66 -17 100 26 206 40 99 39 95 28 95 -4 0 -30 -36 -57 -80z"/>
<path d="M2765 1680 c3 -4 -30 -30 -73 -56 -42 -26 -85 -57 -96 -68 -50 -55
-66 -168 -26 -181 30 -10 50 12 50 53 0 51 33 113 88 165 26 24 57 55 69 68
22 24 22 25 3 26 -11 1 -18 -2 -15 -7z"/>
<path d="M980 1649 c-75 -30 -76 -31 -94 -82 -10 -29 -29 -74 -41 -102 -46
-99 -65 -90 183 -89 178 1 223 4 248 17 32 17 64 69 64 106 0 20 -4 21 -155
21 -85 0 -155 4 -155 9 0 4 13 40 29 80 35 85 34 85 -79 40z"/>
<path d="M705 1543 c-68 -25 -77 -26 -365 -28 -162 -1 -298 -3 -302 -4 -5 0
-8 -32 -8 -71 0 -66 1 -70 23 -71 167 -5 586 2 613 11 18 6 51 31 73 56 46 53
73 137 42 133 -3 0 -37 -12 -76 -26z"/>
<path d="M1276 1194 c-28 -27 -17 -46 37 -63 42 -14 46 -25 17 -41 -15 -8 -26
-7 -45 6 -34 22 -43 12 -11 -14 30 -23 72 -19 86 8 15 28 3 46 -41 59 -47 14
-53 41 -9 41 17 0 30 -4 30 -10 0 -5 7 -10 17 -10 15 0 15 1 0 18 -21 23 -62
26 -81 6z"/>
<path d="M1842 1148 c-12 -35 -22 -66 -22 -70 0 -17 18 -7 23 12 6 24 67 29
67 6 0 -16 18 -31 26 -23 3 3 -5 25 -17 49 -12 23 -22 44 -21 45 0 2 -2 12 -5
23 -10 36 -28 21 -51 -42z m52 -3 c5 -17 2 -21 -18 -21 -22 0 -23 2 -14 29 11
30 21 27 32 -8z"/>
<path d="M1960 1199 c0 -5 5 -7 10 -4 6 3 10 8 10 11 0 2 -4 4 -10 4 -5 0 -10
-5 -10 -11z"/>
<path d="M2079 1189 c-17 -17 -20 -29 -15 -58 10 -63 63 -86 105 -45 22 20 4
30 -18 10 -39 -36 -79 3 -66 64 8 37 39 48 66 24 24 -21 36 -13 14 10 -23 22
-61 20 -86 -5z"/>
<path d="M2498 1197 c-15 -12 -22 -39 -19 -79 3 -48 78 -70 106 -31 19 26 8
36 -16 12 -26 -26 -49 -21 -69 14 -13 24 -13 30 0 54 20 36 43 40 69 12 15
-17 21 -19 21 -8 0 36 -57 52 -92 26z"/>
<path d="M2620 1142 c0 -40 4 -72 8 -72 10 0 9 126 -1 136 -4 4 -7 -25 -7 -64z"/>
<path d="M2829 1203 c-1 -5 -2 -31 -3 -60 -2 -60 11 -110 14 -53 2 19 2 38 2
42 -2 12 27 30 38 23 5 -3 10 -24 10 -45 0 -21 5 -42 10 -45 12 -8 13 74 1 94
-5 8 -19 12 -34 9 -21 -4 -25 -1 -22 19 2 20 -13 35 -16 16z"/>
<path d="M2935 1200 c-3 -5 -1 -10 4 -10 6 0 11 5 11 10 0 6 -2 10 -4 10 -3 0
-8 -4 -11 -10z"/>
<path d="M1730 1184 c0 -9 -8 -14 -17 -13 -49 4 -53 1 -53 -51 0 -27 4 -50 9
-50 5 0 9 15 9 34 0 43 8 56 33 56 15 0 19 -7 19 -39 0 -21 6 -44 13 -50 19
-15 29 -2 13 15 -10 9 -12 24 -7 46 8 38 4 68 -10 68 -5 0 -9 -7 -9 -16z"/>
<path d="M2772 1184 c-6 -12 -7 -26 -2 -34 5 -8 7 -26 5 -41 -4 -30 18 -58 30
-39 3 5 1 10 -4 10 -6 0 -11 18 -11 40 0 25 5 40 13 40 8 0 9 3 1 8 -6 4 -13
14 -16 22 -4 12 -7 11 -16 -6z"/>
<path d="M2025 1170 c-4 -6 -11 -8 -16 -5 -5 4 -9 -16 -9 -44 0 -28 4 -51 8
-51 5 0 9 16 9 36 0 23 6 41 17 49 10 8 13 16 7 19 -5 4 -12 2 -16 -4z"/>
<path d="M1390 1119 c0 -57 15 -66 18 -12 5 73 42 70 42 -3 0 -28 4 -43 10
-39 6 3 10 23 10 45 0 23 5 40 14 43 20 8 26 -2 26 -45 0 -21 5 -38 10 -38 7
0 10 19 9 45 -3 51 -8 54 -91 53 l-48 -1 0 -48z"/>
<path d="M1556 1155 c-6 -17 5 -20 20 -5 12 12 44 3 44 -11 0 -5 -3 -9 -7 -10
-51 -5 -72 -22 -57 -46 5 -8 13 -15 17 -14 4 0 20 1 36 1 28 0 29 2 28 43 -1
23 -6 45 -12 49 -18 13 -63 8 -69 -7z m53 -66 c-21 -13 -39 -11 -39 5 0 8 10
16 23 18 26 4 36 -10 16 -23z"/>
<path d="M1957 1133 c3 -76 4 -80 12 -53 9 33 7 83 -5 87 -5 2 -8 -14 -7 -34z"/>
<path d="M2206 1141 c-13 -24 -13 -31 -1 -48 29 -41 70 -32 88 18 8 24 -20 59
-48 59 -17 0 -29 -9 -39 -29z m67 -11 c3 -11 0 -26 -7 -35 -16 -22 -46 -9 -46
19 0 44 42 56 53 16z"/>
<path d="M2315 1121 c0 -28 4 -53 8 -57 4 -4 7 11 7 33 0 41 20 70 40 58 5 -3
10 -24 10 -46 0 -21 4 -39 10 -39 8 0 8 25 1 88 0 7 -16 12 -39 12 l-38 0 1
-49z"/>
<path d="M2662 1143 c-9 -28 2 -72 20 -74 4 -1 14 -2 21 -3 21 -4 47 26 47 54
0 33 -17 50 -51 50 -21 0 -29 -7 -37 -27z m66 -21 c4 -36 -18 -52 -42 -32 -25
20 -1 76 29 67 6 -2 11 -18 13 -35z"/>
<path d="M2933 1120 c0 -27 3 -50 8 -50 5 0 9 23 9 50 0 28 -3 50 -8 50 -4 0
-8 -22 -9 -50z"/>
<path d="M2980 1118 c0 -26 4 -48 9 -48 5 0 8 14 7 31 -1 17 3 38 10 47 18 24
36 3 36 -42 0 -20 4 -36 9 -36 11 0 12 70 1 88 -5 7 -23 11 -40 10 -31 -2 -32
-4 -32 -50z"/>
<path d="M3090 1150 c-14 -26 -13 -42 6 -68 12 -18 19 -20 35 -12 15 9 19 7
19 -5 0 -21 -24 -29 -49 -16 -17 10 -20 9 -15 -4 7 -18 55 -20 72 -3 7 7 12
37 12 68 l0 57 -35 1 c-25 1 -38 -4 -45 -18z m63 -21 c6 -21 -19 -52 -37 -46
-16 5 -20 58 -5 67 17 11 36 2 42 -21z"/>
</g>
</svg>
